<svg width="202" height="201" viewBox="0 0 202 201" fill="none" xmlns="http://www.w3.org/2000/svg">
<path d="M100.783 100.589C125.057 23.3174 195.958 63.6921 200.917 57.2693C201.437 67.5065 179.624 119.361 100.783 100.589Z" fill="#093719" stroke="#E8BFE4" stroke-width="1.5"/>
<path d="M101.099 100.483C76.8246 177.754 5.92331 137.38 0.964751 143.802C0.444845 133.565 22.258 81.7104 101.099 100.483Z" fill="#093719" stroke="#E8BFE4" stroke-width="1.5"/>
<path d="M100.917 101.04C23.5508 76.7948 63.9749 5.98006 57.5442 1.02756C67.794 0.508284 119.712 22.2948 100.917 101.04Z" fill="#093719" stroke="#E8BFE4" stroke-width="1.5"/>
<path d="M101.08 99.9171C178.446 124.162 138.022 194.977 144.452 199.929C134.203 200.448 82.2845 178.662 101.08 99.9171Z" fill="#093719" stroke="#E8BFE4" stroke-width="1.5"/>
<path d="M99.9753 100.274C154.877 49.3611 191.837 113.864 198.71 110.966C194.371 119.405 153.19 151.066 99.9753 100.274Z" fill="#981938" fill-opacity="0.9" stroke="#E8BFE4" stroke-width="1.5"/>
<path d="M100.843 101.004C53.4664 48.2023 116.288 9.857 113.689 3.14827C121.668 7.19667 150.945 46.9873 100.843 101.004Z" fill="#CD2A51" fill-opacity="0.9" stroke="#E8BFE4" stroke-width="1.5"/>
<path d="M98.062 101.567C44.7266 151.738 9.88279 89.3171 3.2431 92.2134C7.50624 83.9483 47.442 52.6725 98.062 101.567Z" fill="#C7254C" fill-opacity="0.9" stroke="#E8BFE4" stroke-width="1.5"/>
<path d="M102.116 102.684C147.539 152.449 88.5893 187.443 91.1258 193.725C83.5339 189.858 55.3789 152.432 102.116 102.684Z" fill="#9F1B3B" fill-opacity="0.9" stroke="#E8BFE4" stroke-width="1.5"/>
<path d="M100.57 100.584C43.5615 114.15 44.5265 57.2018 38.7739 56.5751C45.0384 52.5492 85.1993 46.7399 100.57 100.584Z" fill="#F63261" fill-opacity="0.9" stroke="#E8BFE4" stroke-width="1.5"/>
<path d="M99.4119 101.304C156.42 87.7373 155.455 144.686 161.208 145.312C154.943 149.338 114.782 155.148 99.4119 101.304Z" fill="#F63261" fill-opacity="0.9" stroke="#E8BFE4" stroke-width="1.5"/>
<path d="M102.541 100.814C88.9323 43.8508 145.934 44.845 146.558 39.098C150.591 45.3589 156.427 85.4861 102.541 100.814Z" fill="#F73261" fill-opacity="0.9" stroke="#E8BFE4" stroke-width="1.5"/>
<path d="M99.25 98.5534C112.859 155.516 55.8579 154.522 55.2337 160.269C51.2008 154.008 45.3649 113.881 99.25 98.5534Z" fill="#EF3460" fill-opacity="0.9" stroke="#E8BFE4" stroke-width="1.5"/>
<ellipse cx="11.7735" cy="10.567" rx="11.7735" ry="10.567" transform="matrix(0.99964 0.0268316 -0.0268973 0.999638 89.2426 90.2422)" fill="#3D0A16"/>
</svg>
