<svg width="238" height="232" viewBox="0 0 238 232" fill="none" xmlns="http://www.w3.org/2000/svg">
<path d="M0 25C0 11.1929 11.1929 0 25 0H213C226.807 0 238 11.1929 238 25V207C238 220.807 226.807 232 213 232H25C11.1929 232 0 220.807 0 207V25Z" fill="#282525"/>
<path d="M118.783 120.589C143.057 43.3174 213.958 83.6921 218.917 77.2693C219.437 87.5065 197.624 139.361 118.783 120.589Z" fill="#093719" stroke="#E8BFE4" stroke-width="1.5"/>
<path d="M119.099 120.483C94.8247 197.754 23.9233 157.38 18.9648 163.802C18.4449 153.565 40.258 101.71 119.099 120.483Z" fill="#093719" stroke="#E8BFE4" stroke-width="1.5"/>
<path d="M118.917 121.04C41.5508 96.7948 81.9749 25.9801 75.5442 21.0276C85.794 20.5083 137.712 42.2948 118.917 121.04Z" fill="#093719" stroke="#E8BFE4" stroke-width="1.5"/>
<path d="M119.08 119.917C196.446 144.162 156.022 214.977 162.452 219.929C152.203 220.448 100.284 198.662 119.08 119.917Z" fill="#093719" stroke="#E8BFE4" stroke-width="1.5"/>
<path d="M117.975 120.274C172.877 69.3611 209.837 133.864 216.71 130.966C212.371 139.405 171.19 171.066 117.975 120.274Z" fill="#981938" fill-opacity="0.9" stroke="#E8BFE4" stroke-width="1.5"/>
<path d="M118.843 121.004C71.4664 68.2023 134.288 29.857 131.689 23.1483C139.668 27.1967 168.945 66.9873 118.843 121.004Z" fill="#CD2A51" fill-opacity="0.9" stroke="#E8BFE4" stroke-width="1.5"/>
<path d="M116.062 121.567C62.7266 171.738 27.8828 109.317 21.2431 112.213C25.5062 103.948 65.442 72.6725 116.062 121.567Z" fill="#C7254C" fill-opacity="0.9" stroke="#E8BFE4" stroke-width="1.5"/>
<path d="M120.116 122.684C165.539 172.449 106.589 207.443 109.126 213.725C101.534 209.858 73.3789 172.432 120.116 122.684Z" fill="#9F1B3B" fill-opacity="0.9" stroke="#E8BFE4" stroke-width="1.5"/>
<path d="M118.57 120.584C61.5615 134.15 62.5265 77.2018 56.7739 76.5751C63.0384 72.5492 103.199 66.7399 118.57 120.584Z" fill="#F63261" fill-opacity="0.9" stroke="#E8BFE4" stroke-width="1.5"/>
<path d="M117.412 121.304C174.42 107.737 173.455 164.686 179.208 165.312C172.943 169.338 132.782 175.148 117.412 121.304Z" fill="#F63261" fill-opacity="0.9" stroke="#E8BFE4" stroke-width="1.5"/>
<path d="M120.541 120.814C106.932 63.8508 163.934 64.845 164.558 59.098C168.591 65.3589 174.427 105.486 120.541 120.814Z" fill="#F73261" fill-opacity="0.9" stroke="#E8BFE4" stroke-width="1.5"/>
<path d="M117.25 118.553C130.859 175.516 73.8579 174.522 73.2337 180.269C69.2008 174.008 63.3649 133.881 117.25 118.553Z" fill="#EF3460" fill-opacity="0.9" stroke="#E8BFE4" stroke-width="1.5"/>
<ellipse cx="11.7735" cy="10.567" rx="11.7735" ry="10.567" transform="matrix(0.99964 0.0268316 -0.0268973 0.999638 107.243 110.242)" fill="#3D0A16"/>
</svg>
